<svg width="40" height="48" viewBox="0 0 40 48" fill="none" xmlns="http://www.w3.org/2000/svg">
<g clip-path="url(#clip0_1689_94550)">
<path d="M38.7727 19.6364C38.7727 27.0718 33.9808 34.0408 29.0916 39.2016C26.6572 41.7712 24.2211 43.8691 22.3931 45.3248C21.4795 46.0523 20.7187 46.6186 20.1874 47.0023C19.9594 47.167 19.7737 47.298 19.6364 47.3936C19.499 47.298 19.3133 47.167 19.0854 47.0023C18.554 46.6186 17.7933 46.0523 16.8796 45.3248C15.0516 43.8691 12.6155 41.7712 10.1812 39.2016C5.29196 34.0408 0.5 27.0718 0.5 19.6364C0.5 14.5611 2.51615 9.69368 6.10491 6.10491C9.69368 2.51615 14.5611 0.5 19.6364 0.5C24.7116 0.5 29.5791 2.51615 33.1678 6.10491C36.7566 9.69368 38.7727 14.5611 38.7727 19.6364Z" fill="#E47933" stroke="white" stroke-linecap="round" stroke-linejoin="round"/>
<path fill-rule="evenodd" clip-rule="evenodd" d="M16.3691 20.2129C15.7246 20.2129 15.7246 19.2246 16.3691 19.2246C16.9994 19.2389 16.9994 20.2129 16.3691 20.2129ZM27.7702 10.459H11.2129C10.8835 10.459 10.6113 10.7311 10.6113 11.0605V25.1257C10.6113 25.4551 10.8835 25.7272 11.2129 25.7272H27.7702C28.0996 25.7272 28.3574 25.4551 28.3574 25.1257V11.0462C28.3717 10.7168 28.0996 10.459 27.7702 10.459Z" fill="#E47933"/>
<path fill-rule="evenodd" clip-rule="evenodd" d="M16.3724 20.2122C15.7279 20.2122 15.7279 19.224 16.3724 19.224C17.0026 19.2383 17.0026 20.2122 16.3724 20.2122ZM19.4375 12.5352C16.2148 12.5352 13.5938 15.1563 13.5938 18.3932C13.5938 21.6159 16.2005 24.237 19.4375 24.237C22.6602 24.237 25.2813 21.6159 25.2813 18.3932C25.2813 15.1563 22.6602 12.5352 19.4375 12.5352Z" fill="white"/>
<path fill-rule="evenodd" clip-rule="evenodd" d="M21.2539 15.9158L21.9557 15.1137L22.1562 14.8846C22.6719 15.0994 23.2305 15.0135 23.6458 14.5265C24.0755 14.0395 24.1901 13.3663 24.0039 12.7648L23.1732 13.7244L22.3138 13.4952L22.0703 12.5929L22.9154 11.6333C22.3568 11.4614 21.7409 11.6333 21.3112 12.1202C20.8815 12.6072 20.8385 13.2088 21.0677 13.7531L21.0964 13.7101L19.9219 15.0564L21.2539 15.9158Z" fill="white"/>
<path fill-rule="evenodd" clip-rule="evenodd" d="M21.3249 15.972L21.196 15.8431L22.1413 14.7545L22.1986 14.7832C22.7142 14.998 23.2298 14.8691 23.6022 14.4538C23.9603 14.0527 24.1035 13.4798 23.9746 12.9355L23.2012 13.8236L22.2559 13.5801L21.9837 12.5631L22.7572 11.6751C22.2559 11.5749 21.7402 11.7611 21.3822 12.1621C21.0098 12.5918 20.9238 13.1504 21.153 13.6946L21.1243 13.709L21.1673 13.7519L21.0384 13.8952L19.9785 15.0983L19.8496 14.9694L20.9525 13.709C20.7233 13.1074 20.8236 12.5058 21.2389 12.0332C21.6686 11.5319 22.3132 11.3457 22.929 11.5176L23.0723 11.5605L22.1699 12.6061L22.3848 13.4082L23.1439 13.6087L24.0462 12.5775L24.0892 12.7207C24.2897 13.3652 24.1465 14.0814 23.7168 14.5827C23.3014 15.041 22.7428 15.1986 22.1842 14.9837L22.0267 15.1699L21.3249 15.972Z" fill="#E47933"/>
<path fill-rule="evenodd" clip-rule="evenodd" d="M14.1225 22.7897C14.008 22.8327 13.8647 22.7897 13.8074 22.6608C13.7645 22.5319 13.8218 22.403 13.9363 22.3457C14.0653 22.3027 14.1942 22.3457 14.2371 22.4746C14.2944 22.6035 14.2371 22.7467 14.1225 22.7897ZM15.297 20.1543L13.5496 22.0163H13.5353C13.2632 22.3027 13.2775 22.7611 13.5639 23.0475C13.8504 23.3197 14.3087 23.3053 14.5809 23.0189L14.5952 23.0046L16.3283 21.1426L15.297 20.1543Z" fill="white"/>
<path fill-rule="evenodd" clip-rule="evenodd" d="M14.0372 22.4173L13.9799 22.4316L13.894 22.5176V22.6465C13.9226 22.7181 14.0229 22.7611 14.0945 22.7324C14.1805 22.6895 14.2091 22.6035 14.1805 22.5319C14.1518 22.4603 14.0945 22.4173 14.0372 22.4173ZM14.0372 22.89C13.9083 22.89 13.7937 22.804 13.7508 22.6895C13.7221 22.6178 13.7221 22.5176 13.7508 22.446C13.7794 22.3743 13.851 22.3027 13.9226 22.2741L14.0372 22.2454C14.1661 22.2454 14.2807 22.3171 14.3237 22.446C14.3953 22.6035 14.3094 22.7897 14.1518 22.8613L14.0372 22.89ZM13.5646 22.1309L13.6075 22.0736L15.2976 20.2546L16.2286 21.1426L14.5529 22.9329L14.5385 22.9473C14.4239 23.0762 14.2521 23.1478 14.0802 23.1478C13.9083 23.1478 13.7651 23.0905 13.6362 22.9616C13.3927 22.7611 13.364 22.3887 13.5646 22.1309ZM14.0659 23.3197C13.851 23.3197 13.6648 23.2337 13.5073 23.0905C13.1922 22.7897 13.1779 22.2741 13.4786 21.959L13.493 21.9447L15.2976 20.0254L16.4578 21.1426L14.6674 23.0618L14.6531 23.0762C14.4956 23.2337 14.2807 23.3197 14.0659 23.3197Z" fill="#E47933"/>
<path fill-rule="evenodd" clip-rule="evenodd" d="M25.0085 15.0566L11.9316 20.127L12.3613 21.2871L15.9421 19.8978C15.9134 19.6257 16.0853 19.3249 16.429 19.3392C16.6152 19.3535 16.7441 19.4395 16.8158 19.554L25.4525 16.2168L26.2832 15.2285L25.0085 15.0566Z" fill="white"/>
<path fill-rule="evenodd" clip-rule="evenodd" d="M16.3704 20.2129C15.7259 20.2129 15.7259 19.2246 16.3704 19.2246C17.015 19.2389 17.015 20.2129 16.3704 20.2129ZM21.2116 16.0306L19.1634 14.7988L17.416 15.6009L16.0983 16.2025L14.4941 18.9238L15.5684 20.041L16.8861 21.416L21.7129 17.5918C21.7559 16.36 21.2116 16.0306 21.2116 16.0306Z" fill="white"/>
<path fill-rule="evenodd" clip-rule="evenodd" d="M25.7793 15.127L25.9512 15.528L26.2233 15.1699L25.7793 15.127Z" fill="white"/>
<path fill-rule="evenodd" clip-rule="evenodd" d="M24.9772 14.9551L11.8145 20.1113L12.3587 21.3717L15.8249 20.054C15.7962 19.9967 15.653 19.9538 15.653 19.8822L12.459 21.1283L12.0579 20.2116L25.0059 15.1556L26.0944 15.2702L25.4069 16.0866L16.7415 19.4811C16.7845 19.5384 16.8561 19.5527 16.8704 19.61L25.5215 16.2298L26.4668 15.1126L24.9772 14.9551Z" fill="#E47933"/>
<path fill-rule="evenodd" clip-rule="evenodd" d="M25.8366 15.2422L25.0059 15.1562L25.4069 16.0729L25.9368 15.4427L25.8366 15.2422Z" fill="#E47933"/>
<path fill-rule="evenodd" clip-rule="evenodd" d="M25.0059 15.1562L25.4069 16.0729L25.0059 15.1562Z" fill="white"/>
<path fill-rule="evenodd" clip-rule="evenodd" d="M25.3066 16.1159L24.9199 15.1849L25.1061 15.1133L25.5072 16.0443L25.3066 16.1159Z" fill="#E47933"/>
<path fill-rule="evenodd" clip-rule="evenodd" d="M27.7572 31.5137L27.614 31.2415H28.3445L28.502 31.5137H27.7572ZM27.2846 30.554H27.9721L28.1296 30.8262H27.4278L27.2846 30.554ZM26.3106 31.5137L26.2104 31.2415H26.9552L27.0841 31.5137H26.3106ZM25.9382 30.554H26.6257L26.7546 30.8262H26.0385L25.9382 30.554ZM25.6518 29.8379H26.2963L26.4252 30.11H25.7664L25.6518 29.8379ZM24.864 31.5137L24.7924 31.2415H25.5515L25.6518 31.5137H24.864ZM24.5919 30.554H25.2937L25.394 30.8262H24.6635L24.5919 30.554ZM24.3914 29.8379H25.0359L25.1218 30.11H24.463L24.3914 29.8379ZM23.4174 31.5137L23.3744 31.2415H24.1479L24.2195 31.5137H23.4174ZM21.9708 31.5137L21.9565 31.2415H22.7299L22.7729 31.5137H21.9708ZM21.9135 30.554H23.2599L23.1309 29.8379H23.7898L24.0476 30.8262H21.9421L21.9135 30.554ZM21.8562 29.8379L21.8705 30.11H22.558L22.5151 29.8379H21.8562ZM14.7807 31.5137L14.9096 31.2415H21.3119L21.3263 31.5137H14.7807ZM14.4369 30.8118H13.7351L13.8927 30.5397H14.5802L14.4369 30.8118ZM14.1075 31.5137H13.3484L13.5059 31.2415H14.2507L14.1075 31.5137ZM13.0763 30.8118H12.3888L12.575 30.5397H13.2481L13.0763 30.8118ZM12.6609 31.5137H11.9161L12.1023 31.2415H12.8184L12.6609 31.5137ZM11.6869 30.8118H11.0138L11.2286 30.5397H11.8731L11.6869 30.8118ZM11.2 31.5137H10.4695L10.6843 31.2415H11.3861L11.2 31.5137ZM11.7872 29.8379H12.3744L12.1882 30.11H11.5723L11.7872 29.8379ZM13.0476 29.8379H13.6635L13.5059 30.11H12.8614L13.0476 29.8379ZM14.2937 29.8379H14.9239L14.795 30.11H14.1505L14.2937 29.8379ZM15.2247 30.554H15.9265L15.8263 30.8262H15.1101L15.2247 30.554ZM15.5541 29.8379H16.1987L16.0984 30.11H15.4395L15.5541 29.8379ZM16.5567 30.554H17.2585L17.1869 30.8262H16.4565L16.5567 30.554ZM16.8145 29.8379H17.4591L17.3875 30.11H16.7286L16.8145 29.8379ZM17.8888 30.554H18.6049L18.5619 30.8262H17.8315L17.8888 30.554ZM18.075 29.8379H18.7338L18.6908 30.11H18.0177L18.075 29.8379ZM19.2351 30.554H19.9513L19.9369 30.8262H19.1921L19.2351 30.554ZM19.3354 29.8379H19.9942L19.9799 30.11H19.2924L19.3354 29.8379ZM20.5671 30.554H21.2833L21.2976 30.8262H20.5671V30.554ZM20.5958 29.8379H21.2546L21.269 30.11H20.5815L20.5958 29.8379ZM27.5424 29.8379L27.7 30.11H27.0554L26.9265 29.8379H27.5424ZM28.0724 29.6087C28.0151 29.5371 27.9434 29.4941 27.8432 29.4941H11.4148C11.3289 29.4941 11.2572 29.5371 11.2 29.5944L9.56714 31.5423C9.49552 31.6283 9.4812 31.7428 9.52417 31.8431C9.56714 31.9434 9.6674 32.0007 9.76766 32.0007H29.2039C29.3041 32.0007 29.3901 31.9434 29.4474 31.8574C29.4903 31.7715 29.4903 31.6569 29.433 31.571L28.0724 29.6087Z" fill="white"/>
<path fill-rule="evenodd" clip-rule="evenodd" d="M15.8853 28.6348C15.6275 28.8926 16.0285 29.0501 16.0285 29.0501H19.4517H19.466H19.4803H22.8892C22.8892 29.0501 23.3045 28.9069 23.0467 28.6348C22.7746 28.377 22.0728 28.1764 21.9868 27.0449C21.9868 26.959 21.9868 26.6009 21.9868 26.1426H16.9452C16.9452 26.6009 16.9452 26.959 16.9452 27.0449C16.8735 28.1764 16.1431 28.3626 15.8853 28.6348Z" fill="white"/>
<path fill-rule="evenodd" clip-rule="evenodd" d="M11.3294 10.5586C11 10.5586 10.7422 10.8307 10.7422 11.1458V25.0104C10.7422 25.3398 11 25.5977 11.3294 25.5977H27.6576C27.9727 25.5977 28.2448 25.3398 28.2448 25.0104V11.1458C28.2448 10.8307 27.9727 10.5586 27.6576 10.5586H11.3294ZM27.6576 26.1706H11.3294C10.6992 26.1706 10.1836 25.655 10.1836 25.0247V11.1458C10.1836 10.5156 10.6992 10 11.3294 10H27.6576C28.2878 10 28.8034 10.5156 28.8034 11.1458V25.0104C28.8034 25.655 28.2878 26.1706 27.6576 26.1706Z" fill="white"/>
<path fill-rule="evenodd" clip-rule="evenodd" d="M11.3294 10.5586C11 10.5586 10.7422 10.8307 10.7422 11.1458V25.0104C10.7422 25.3398 11 25.5977 11.3294 25.5977H27.6576C27.9727 25.5977 28.2448 25.3398 28.2448 25.0104V11.1458C28.2448 10.8307 27.9727 10.5586 27.6576 10.5586H11.3294ZM27.6576 26.1706H11.3294C10.6992 26.1706 10.1836 25.655 10.1836 25.0247V11.1458C10.1836 10.5156 10.6992 10 11.3294 10H27.6576C28.2878 10 28.8034 10.5156 28.8034 11.1458V25.0104C28.8034 25.655 28.2878 26.1706 27.6576 26.1706Z" fill="white"/>
<path fill-rule="evenodd" clip-rule="evenodd" d="M16.2695 18.3496L16.3127 18.4216L16.2695 18.3496Z" fill="#E47933"/>
<path fill-rule="evenodd" clip-rule="evenodd" d="M24.6484 25.5833C24.7057 25.526 24.5339 25.5117 24.5911 25.4544C24.5339 25.3971 22.2279 25.5976 22.1992 25.5547C21.3828 24.7239 22.7148 26.0703 21.8984 25.2539C21.0104 24.3515 20.1224 23.4349 19.2201 22.5325C19.1484 22.4609 19.0339 22.4323 18.9193 22.4036C18.6471 22.3177 18.3464 22.289 18.0885 22.1601C17.8594 22.0455 17.6875 21.8307 17.487 21.6588C17.2435 21.444 17.0143 21.2148 16.7852 20.9857C17.0859 20.6705 17.4727 20.47 17.5443 20.0117L17.6302 19.9401C17.7591 19.8398 17.9023 19.7396 18.0313 19.625C18.2318 19.4388 18.4036 19.2383 18.3464 18.9375L18.418 18.8229C18.6471 18.5937 18.862 18.3646 19.0768 18.1354C19.2344 18.1067 19.3776 18.0924 19.5352 18.0638C19.5065 18.1497 19.5065 18.25 19.4492 18.3359C19.306 18.5794 19.3633 18.8229 19.4922 19.0377C19.7214 19.4674 19.9792 19.8828 20.2227 20.2982C20.2656 20.3698 20.3802 20.3984 20.4518 20.4414C20.4518 20.3554 20.4661 20.2552 20.4375 20.1836C20.237 19.8255 20.0221 19.4817 19.8216 19.1237C19.707 18.9231 19.5638 18.737 19.6497 18.4791C19.7643 18.207 19.8789 17.9349 20.0078 17.6627C20.237 17.1758 20.2513 17.1758 19.8359 16.8177L19.7786 16.7747C19.6211 16.6172 19.4492 16.6028 19.2487 16.7031C19.0768 16.789 18.8906 16.875 18.7044 16.9752C18.4896 17.0898 18.2891 17.0468 18.1172 16.875C18.0313 16.8034 17.9453 16.7174 17.8594 16.6315C17.7161 16.4883 17.7305 16.3593 17.8737 16.2448C18.2747 15.9153 18.6615 15.5859 19.0625 15.2565C19.2201 15.1276 19.3919 15.1133 19.5638 15.2422C20.0651 15.5859 20.5807 15.9153 21.0964 16.2448C21.2969 16.3737 21.4115 16.5455 21.4401 16.789C21.5117 17.4622 21.569 18.1354 21.6836 18.8086C21.7982 19.4531 21.6406 19.9974 21.2826 20.4987C21.2109 20.5989 21.1536 20.6992 21.0677 20.7995C20.9388 20.9284 20.9818 21.0429 21.1107 21.1432C21.5833 21.5729 22.056 22.0026 22.5286 22.4323C23.2161 23.0768 23.918 23.6927 24.6055 24.3372C24.6628 24.3945 24.7344 24.4375 24.7917 24.4948C24.7344 24.3659 24.6628 24.2799 24.5768 24.194C23.6172 23.2487 22.6576 22.3177 21.6979 21.3724C21.569 21.2435 21.3398 21.1146 21.3255 20.957C21.2969 20.8138 21.4831 20.6276 21.5833 20.47C21.6693 20.2982 21.7552 20.1406 21.8411 19.9687C21.8698 19.9258 21.8984 19.8685 21.9414 19.8112C23.7747 21.4583 26.1237 23.5065 27.957 25.1536L24.6484 25.5833Z" fill="#E47933"/>
<path fill-rule="evenodd" clip-rule="evenodd" d="M16.5862 18.9228C16.8153 19.1519 17.0588 19.3811 17.288 19.5959C17.4599 19.7535 17.5458 19.7535 17.7034 19.5673C17.8036 19.4527 17.9039 19.3381 18.0185 19.2379C18.176 19.0946 18.1474 18.9657 18.0185 18.8368C17.5458 18.3642 17.0588 17.9058 16.5718 17.4475C16.4429 17.3329 16.314 17.3329 16.1851 17.4618C16.0705 17.5764 15.956 17.7053 15.8557 17.8056C15.7125 17.9488 15.7125 18.0777 15.87 18.2209C16.1135 18.4644 16.357 18.6936 16.5862 18.9228Z" fill="#E47933"/>
<path fill-rule="evenodd" clip-rule="evenodd" d="M17.2883 17.8206C17.5318 18.0497 17.7753 18.2789 18.0045 18.5081C18.1477 18.6513 18.2766 18.6513 18.4198 18.5081C18.5344 18.3935 18.6347 18.2789 18.7349 18.1787C18.8638 18.0354 18.8638 17.8922 18.7493 17.7633C18.2766 17.305 17.8039 16.8323 17.317 16.3883C17.1737 16.2594 17.0305 16.2594 16.8873 16.4169C16.7727 16.5315 16.6724 16.6461 16.5579 16.7607C16.4289 16.8896 16.4289 17.0185 16.5722 17.1474C16.8157 17.3622 17.0592 17.5914 17.2883 17.8206Z" fill="#E47933"/>
<path fill-rule="evenodd" clip-rule="evenodd" d="M16.6149 19.2955L16.5433 19.2095C16.3571 19.0233 16.1709 18.8371 15.9847 18.6652C15.7555 18.4504 15.6553 18.4504 15.4261 18.6796C15.3402 18.7655 15.2686 18.8514 15.1826 18.9374C15.0251 19.0806 15.0251 19.2238 15.1826 19.3527C15.598 19.7681 16.0277 20.1835 16.4574 20.5845C16.5719 20.6991 16.7008 20.6991 16.8154 20.5845C16.9443 20.4556 17.0446 20.341 17.1735 20.2264C17.3311 20.0832 17.2881 19.94 17.1449 19.8111C17.016 19.6965 16.887 19.5676 16.7581 19.453L16.6149 19.2955Z" fill="#E47933"/>
<path fill-rule="evenodd" clip-rule="evenodd" d="M18.5781 17.2765C18.7643 17.4627 18.9362 17.6202 19.1081 17.7921C19.2227 17.9067 19.3372 17.9067 19.4518 17.7778C19.5807 17.6346 19.724 17.52 19.8099 17.3624C19.8529 17.2908 19.8815 17.1333 19.8242 17.0616C19.7383 16.9471 19.6523 16.7752 19.4375 16.8611C19.1654 17.0043 18.8789 17.1333 18.5781 17.2765Z" fill="#E47933"/>
<path fill-rule="evenodd" clip-rule="evenodd" d="M17.5293 16.2734C17.8014 16.0299 18.0592 15.8151 18.3027 15.6003L18.2884 15.543C18.1881 15.5573 18.0449 15.543 18.002 15.6146C17.8301 15.8008 17.5293 15.9297 17.5293 16.2734Z" fill="#E47933"/>
</g>
<defs>
<clipPath id="clip0_1689_94550">
<rect width="39.2727" height="48" fill="white"/>
</clipPath>
</defs>
</svg>
