<svg width="40" height="48" viewBox="0 0 40 48" fill="none" xmlns="http://www.w3.org/2000/svg">
<g clip-path="url(#clip0_1689_94531)">
<path d="M38.7727 19.6364C38.7727 27.0718 33.9808 34.0408 29.0916 39.2016C26.6572 41.7712 24.2211 43.8691 22.3931 45.3248C21.4795 46.0523 20.7187 46.6186 20.1874 47.0023C19.9594 47.167 19.7737 47.298 19.6364 47.3936C19.499 47.298 19.3133 47.167 19.0854 47.0023C18.554 46.6186 17.7933 46.0523 16.8796 45.3248C15.0516 43.8691 12.6155 41.7712 10.1812 39.2016C5.29196 34.0408 0.5 27.0718 0.5 19.6364C0.5 14.5611 2.51615 9.69368 6.10491 6.10491C9.69368 2.51615 14.5611 0.5 19.6364 0.5C24.7116 0.5 29.5791 2.51615 33.1678 6.10491C36.7566 9.69368 38.7727 14.5611 38.7727 19.6364Z" fill="#47e294" stroke="white" stroke-linecap="round" stroke-linejoin="round"/>
<path d="M31.0481 17.1512L20.5699 13.1064C20.2044 12.9645 19.7956 12.9645 19.4301 13.1064L8.95186 17.1512C8.67066 17.2598 8.42981 17.4462 8.26021 17.6865C8.09061 17.9268 8 18.21 8 18.4999C8 18.7898 8.09061 19.073 8.26021 19.3133C8.42981 19.5536 8.67066 19.74 8.95186 19.8486L19.4301 23.8936C19.7955 24.0355 20.2045 24.0355 20.5699 23.8936L31.0481 19.8487C31.3293 19.7401 31.5702 19.5538 31.7398 19.3135C31.9094 19.0732 32 18.7899 32 18.5C32 18.2102 31.9094 17.9269 31.7398 17.6866C31.5702 17.4463 31.3293 17.2599 31.0481 17.1514V17.1512Z" fill="white"/>
<path d="M30.5 24C30.3674 24 30.2402 23.9578 30.1464 23.8826C30.0527 23.8074 30 23.7055 30 23.5992V20.4008C30 20.2945 30.0527 20.1926 30.1464 20.1174C30.2402 20.0422 30.3674 20 30.5 20C30.6326 20 30.7598 20.0422 30.8536 20.1174C30.9473 20.1926 31 20.2945 31 20.4008V23.5992C31 23.7055 30.9473 23.8074 30.8536 23.8826C30.7598 23.9578 30.6326 24 30.5 24Z" fill="white"/>
<path d="M30.5 26C31.3284 26 32 25.3284 32 24.5C32 23.6716 31.3284 23 30.5 23C29.6716 23 29 23.6716 29 24.5C29 25.3284 29.6716 26 30.5 26Z" fill="white"/>
<path d="M27 23V26.8166C27 27.1595 26.9043 27.495 26.7247 27.7816C26.5451 28.0683 26.2895 28.2937 25.9892 28.4301L20.6692 30.8533C20.4582 30.9501 20.2303 31 20 31C19.7697 31 19.5418 30.9501 19.3308 30.8533L14.0108 28.4301C13.7105 28.2937 13.4549 28.0683 13.2753 27.7816C13.0957 27.495 13 27.1595 13 26.8166V23L18.9528 25.52C19.6253 25.8055 20.3775 25.8055 21.05 25.52L27 23Z" fill="white"/>
</g>
<defs>
<clipPath id="clip0_1689_94531">
<rect width="39.2727" height="48" fill="white"/>
</clipPath>
</defs>
</svg>
